<mxfile host="app.diagrams.net" agent="Mozilla/5.0 (Windows NT 10.0; Win64; x64) AppleWebKit/537.36 (KHTML, like Gecko) Chrome/135.0.0.0 Safari/537.36 Edg/135.0.0.0" version="26.2.8">
  <diagram name="第 1 页" id="V8_qcKDwf0vtJj72LHAN">
    <mxGraphModel dx="1218" dy="658" grid="1" gridSize="10" guides="1" tooltips="1" connect="1" arrows="1" fold="1" page="1" pageScale="1" pageWidth="827" pageHeight="1169" math="0" shadow="0">
      <root>
        <mxCell id="0" />
        <mxCell id="1" parent="0" />
        <mxCell id="d-JeLjUKKI5550INJL4p-5" value="AI生成文本检测架构" style="text;html=1;align=center;verticalAlign=middle;whiteSpace=wrap;rounded=0;" vertex="1" parent="1">
          <mxGeometry x="190" y="30" width="240" height="30" as="geometry" />
        </mxCell>
        <mxCell id="d-JeLjUKKI5550INJL4p-14" value="输入层" style="rounded=1;whiteSpace=wrap;html=1;" vertex="1" parent="1">
          <mxGeometry x="20" y="80" width="120" height="60" as="geometry" />
        </mxCell>
        <mxCell id="d-JeLjUKKI5550INJL4p-15" value="模型推理层" style="rounded=1;whiteSpace=wrap;html=1;" vertex="1" parent="1">
          <mxGeometry x="-70" y="410" width="120" height="60" as="geometry" />
        </mxCell>
        <mxCell id="d-JeLjUKKI5550INJL4p-16" value="决策层" style="rounded=1;whiteSpace=wrap;html=1;" vertex="1" parent="1">
          <mxGeometry x="470" y="70" width="120" height="60" as="geometry" />
        </mxCell>
        <mxCell id="d-JeLjUKKI5550INJL4p-17" value="输出层" style="rounded=1;whiteSpace=wrap;html=1;" vertex="1" parent="1">
          <mxGeometry x="690" y="70" width="120" height="60" as="geometry" />
        </mxCell>
        <mxCell id="d-JeLjUKKI5550INJL4p-6" value="" style="shape=mxgraph.sap.icon;labelPosition=center;verticalLabelPosition=bottom;align=center;verticalAlign=top;strokeWidth=1;strokeColor=#D5DADD;fillColor=#EDEFF0;gradientColor=#FCFCFC;gradientDirection=west;aspect=fixed;SAPIcon=SAP_Document_Grounding" vertex="1" parent="1">
          <mxGeometry y="180" width="30" height="30" as="geometry" />
        </mxCell>
        <mxCell id="d-JeLjUKKI5550INJL4p-22" value="" style="image;aspect=fixed;html=1;points=[];align=center;fontSize=12;image=img/lib/azure2/general/Process_Explorer.svg;" vertex="1" parent="1">
          <mxGeometry x="90" y="180" width="30.88" height="30" as="geometry" />
        </mxCell>
        <mxCell id="d-JeLjUKKI5550INJL4p-26" value="文本输入" style="text;html=1;align=center;verticalAlign=middle;whiteSpace=wrap;rounded=0;" vertex="1" parent="1">
          <mxGeometry x="-15" y="230" width="60" height="30" as="geometry" />
        </mxCell>
        <mxCell id="d-JeLjUKKI5550INJL4p-27" value="预处理模块" style="text;html=1;align=center;verticalAlign=middle;whiteSpace=wrap;rounded=0;" vertex="1" parent="1">
          <mxGeometry x="80" y="230" width="70" height="30" as="geometry" />
        </mxCell>
        <mxCell id="d-JeLjUKKI5550INJL4p-30" value="" style="image;aspect=fixed;perimeter=ellipsePerimeter;html=1;align=center;shadow=0;dashed=0;spacingTop=3;image=img/lib/active_directory/database.svg;" vertex="1" parent="1">
          <mxGeometry x="305" y="360" width="40.54" height="30" as="geometry" />
        </mxCell>
        <mxCell id="d-JeLjUKKI5550INJL4p-31" value="" style="image;aspect=fixed;perimeter=ellipsePerimeter;html=1;align=center;shadow=0;dashed=0;spacingTop=3;image=img/lib/active_directory/database.svg;" vertex="1" parent="1">
          <mxGeometry x="305" y="350" width="40.54" height="30" as="geometry" />
        </mxCell>
        <mxCell id="d-JeLjUKKI5550INJL4p-32" value="RoBERTa-base" style="text;html=1;align=center;verticalAlign=middle;whiteSpace=wrap;rounded=0;" vertex="1" parent="1">
          <mxGeometry x="240" y="350" width="64.46" height="30" as="geometry" />
        </mxCell>
        <mxCell id="d-JeLjUKKI5550INJL4p-33" value="Chines-RoBERTa-wwm-ext" style="text;html=1;align=center;verticalAlign=middle;whiteSpace=wrap;rounded=0;" vertex="1" parent="1">
          <mxGeometry x="360" y="350" width="60" height="30" as="geometry" />
        </mxCell>
        <mxCell id="d-JeLjUKKI5550INJL4p-34" value="" style="image;aspect=fixed;html=1;points=[];align=center;fontSize=12;image=img/lib/azure2/ai_machine_learning/Cognitive_Services.svg;" vertex="1" parent="1">
          <mxGeometry x="500" y="330" width="42.5" height="30" as="geometry" />
        </mxCell>
        <mxCell id="d-JeLjUKKI5550INJL4p-35" value="AI概率输出" style="text;html=1;align=center;verticalAlign=middle;whiteSpace=wrap;rounded=0;" vertex="1" parent="1">
          <mxGeometry x="500" y="360" width="80" height="30" as="geometry" />
        </mxCell>
        <mxCell id="d-JeLjUKKI5550INJL4p-36" value="AIGC模型" style="rounded=1;whiteSpace=wrap;html=1;" vertex="1" parent="1">
          <mxGeometry x="100" y="345" width="100" height="45" as="geometry" />
        </mxCell>
        <mxCell id="d-JeLjUKKI5550INJL4p-37" value="" style="shape=image;verticalLabelPosition=bottom;labelBackgroundColor=default;verticalAlign=top;aspect=fixed;imageAspect=0;image=https://huggingface.co/front/assets/huggingface_logo-noborder.svg;" vertex="1" parent="1">
          <mxGeometry x="320" y="220" width="32.39" height="30" as="geometry" />
        </mxCell>
        <mxCell id="d-JeLjUKKI5550INJL4p-42" value="&lt;pre style=&quot;font-family: Menlo, &amp;quot;Roboto Mono&amp;quot;, &amp;quot;Courier New&amp;quot;, Courier, monospace, Inter, sans-serif; overflow: auto; padding: 9.144px 13.716px; text-wrap-mode: wrap; word-break: break-all; font-size: 12.573px; margin-top: 0px !important; margin-bottom: 0px !important;&quot;&gt;&lt;font style=&quot;color: rgb(0, 0, 0);&quot;&gt;Model: RoBERTa-base  &lt;br/&gt;HF Repo: huggingface.co/yuchuantian/AIGC_detector_env2&lt;/font&gt;&lt;/pre&gt;" style="text;html=1;align=left;verticalAlign=middle;whiteSpace=wrap;rounded=0;" vertex="1" parent="1">
          <mxGeometry x="360" y="230" width="426" height="30" as="geometry" />
        </mxCell>
      </root>
    </mxGraphModel>
  </diagram>
</mxfile>
